<?xml version="1.0" encoding="utf-8"?>
<!-- Generator: Adobe Illustrator 22.0.0, SVG Export Plug-In . SVG Version: 6.00 Build 0)  -->
<svg version="1.1" id="Layer_1" xmlns="http://www.w3.org/2000/svg" xmlns:xlink="http://www.w3.org/1999/xlink" x="0px" y="0px"
	 viewBox="0 0 1342.8 518.4" style="enable-background:new 0 0 1342.8 518.4;" xml:space="preserve">
<style type="text/css">
	.st0{fill:#F9F9F9;}
	.st1{fill:#FF0042;}
</style>
<g>
	<circle class="st0" cx="257.5" cy="260.9" r="249.5"/>
	<g>
		<path class="st1" d="M331.4,273.9c-17,26.8-26.6,54-28,81.7H243c1.5-17.5,4.6-28.6,10.6-38.1c-45.5,9.2-84.7,5.1-117.5-11.8
			c-12.3,16.4-20.6,32-24.1,46.5H68.9c6-24.7,16.5-46.1,32.5-63.8l-38.1-42C147.1,294.7,236.1,306.4,331.4,273.9z"/>
		<path class="st1" d="M353.2,246.5c-48.1-94.6-197.6-114.2-263,0C161.3,290.9,268.6,293.2,353.2,246.5z"/>
		<path class="st1" d="M451.7,355.6c-2.8-29.6-23.7-50-55.4-64.7c9.9,19.2,12.3,41.4,11.8,64.7H451.7z"/>
		<path class="st1" d="M382.3,220.7c0,0,0.7-18.6,10.1-38.1c12.9-26.9,54.3-20.7,54.3,16.2c-0.1,40.3-44.8,71.4-71.6,92
			c-26.9,20.5-57.1-11.9-19.6-29.9C367.7,251.2,377.3,238.4,382.3,220.7z"/>
	</g>
</g>
<path class="st1" d="M602.5,359.2c-14.5,0-25.8-4.2-34.1-12.5c-8.2-8.3-12.4-20.3-12.4-35.9v-74h-25.3v-25.6H556v-48.7h31.6v48.7
	h41.8v25.6h-41.8v70.7c0,7.7,1.6,13.6,4.8,17.7c3.2,4.1,7.9,6.2,14.2,6.2c3.3,0,6.9-0.5,10.7-1.5c3.8-1,7.4-2.4,10.7-4.3l7.2,23.9
	c-4.2,2.9-9.1,5.3-14.7,7C614.9,358.3,608.9,359.2,602.5,359.2z"/>
<path class="st1" d="M723.5,358.9c-12.8,0-24-2.7-33.4-8.2c-9.4-5.5-16.8-13.3-22-23.5s-7.8-22.1-7.8-35.9v-80.3h31.6v80.8
	c0,11.9,2.8,21.3,8.5,28.2c5.7,6.9,13.5,10.3,23.4,10.3c9.9,0,17.7-3.4,23.4-10.3c5.7-6.9,8.5-16.3,8.5-28.2v-80.8h31.6v80.3
	c0,13.6-2.6,25.4-7.8,35.6s-12.6,18.1-22.1,23.6C747.8,356.1,736.5,358.9,723.5,358.9z"/>
<path class="st1" d="M880.8,359.2c-14.5,0-25.9-4.2-34.1-12.5c-8.2-8.3-12.4-20.3-12.4-35.9v-74H809v-25.6h25.3v-48.7h31.6v48.7
	h41.8v25.6h-41.8v70.7c0,7.7,1.6,13.6,4.8,17.7c3.2,4.1,7.9,6.2,14.2,6.2c3.3,0,6.9-0.5,10.7-1.5c3.8-1,7.4-2.4,10.7-4.3l7.2,23.9
	c-4.2,2.9-9.1,5.3-14.7,7C893.2,358.3,887.2,359.2,880.8,359.2z"/>
<path class="st1" d="M938.5,358.8V214.9h28.9l1.4,23.6c3.7-8.1,8.8-14.3,15.3-18.8c6.5-4.5,14.2-6.7,23-6.7c2.8,0,5.4,0.2,8,0.5
	c2.6,0.4,4.9,1,6.9,1.9l-3.6,30.8c-2-0.7-4.1-1.2-6.3-1.5c-2.2-0.3-4.4-0.4-6.6-0.4c-11,0-19.6,3.7-25.9,11
	c-6.2,7.3-9.3,17.5-9.3,30.5v72.9H938.5z"/>
<path class="st1" d="M1134.6,354.3c-9.9,3.8-19.7,5.5-29.4,5.2c-9.6-0.3-18.8-2.5-27.4-6.5c-8.6-4-16.2-9.7-22.8-17
	c-6.6-7.4-12-16.3-16-26.7c-3.9-10.1-5.8-20.1-5.7-29.9c0.1-9.8,1.8-19.1,5.3-27.8c3.5-8.7,8.5-16.4,15.2-23
	c6.7-6.7,14.7-11.8,24.1-15.4c9.4-3.6,18.7-5.2,27.7-4.9c9.1,0.4,17.6,2.5,25.7,6.5c8.1,4,15.3,9.6,21.6,16.9
	c6.3,7.3,11.4,16.1,15.4,26.4l3.3,8.7l-99.4,38c3.9,7.6,8.6,13.6,14.1,18c5.5,4.5,11.5,7.2,18,8.3c6.5,1.1,13.2,0.2,20.3-2.4
	c14-5.4,22.6-15.8,25.7-31.3l29.8,0.1c-0.4,8.2-2.6,16-6.5,23.5c-3.9,7.5-9.2,14.1-16,19.8C1151,346.4,1143.3,351,1134.6,354.3z
	 M1087.1,237c-6,2.3-10.8,5.7-14.5,10.2c-3.7,4.5-6.2,9.9-7.5,16.1c-1.4,6.2-1.4,12.9,0,20l67.8-25.9c-3.6-6.3-7.8-11.4-12.6-15.2
	c-4.8-3.9-10.1-6.2-15.8-7.2C1098.7,234.2,1092.9,234.8,1087.1,237z"/>
<path class="st1" d="M1290.5,354.3c-9.9,3.8-19.7,5.5-29.4,5.2c-9.6-0.3-18.8-2.5-27.4-6.5c-8.6-4-16.2-9.7-22.8-17
	c-6.6-7.4-12-16.3-16-26.7c-3.9-10.1-5.8-20.1-5.7-29.9c0.1-9.8,1.8-19.1,5.3-27.8c3.5-8.7,8.5-16.4,15.2-23
	c6.7-6.7,14.7-11.8,24.1-15.4c9.4-3.6,18.7-5.2,27.7-4.9c9.1,0.4,17.6,2.5,25.7,6.5c8.1,4,15.3,9.6,21.6,16.9
	c6.3,7.3,11.4,16.1,15.4,26.4l3.3,8.7l-99.4,38c3.9,7.6,8.6,13.6,14.1,18c5.5,4.5,11.5,7.2,18,8.3c6.5,1.1,13.2,0.2,20.3-2.4
	c14-5.4,22.6-15.8,25.7-31.3l29.8,0.1c-0.4,8.2-2.6,16-6.5,23.5c-3.9,7.5-9.2,14.1-16,19.8C1307,346.4,1299.3,351,1290.5,354.3z
	 M1243.1,237c-6,2.3-10.8,5.7-14.5,10.2c-3.7,4.5-6.2,9.9-7.5,16.1c-1.4,6.2-1.4,12.9,0,20l67.8-25.9c-3.6-6.3-7.8-11.4-12.6-15.2
	c-4.8-3.9-10.1-6.2-15.8-7.2C1254.7,234.2,1248.9,234.8,1243.1,237z"/>
</svg>
